<svg xmlns="http://www.w3.org/2000/svg" width="77.807" height="77.35" viewBox="0 0 77.807 77.35">
  <g id="Untitled-1_1_" data-name="Untitled-1 (1)" transform="translate(-46.181 240.65)">
    <path id="Path_2010" data-name="Path 2010" d="M78.356-240.186C63.745-237.4,52.2-226.665,47.924-211.853a50.332,50.332,0,0,0-1.493,8.6c-.686,7.79-.04,10.292,2.946,10.736,1.251.2,1.7.04,2.825-.969l1.372-1.211.283-6.821c.283-7.749.686-9.606,3.31-14.853a32.045,32.045,0,0,1,14.853-14.288,28.344,28.344,0,0,1,13.036-2.623,29.768,29.768,0,0,1,7.668.726,31.252,31.252,0,0,1,20.382,16.588c3.067,6.3,3.229,7.628,3.229,23.732,0,13.763,0,13.884-.928,15.256-1.7,2.583-2.623,2.785-12.633,2.785H93.894l-1.211-1.251c-1.735-1.9-3.31-2.381-7.426-2.381-3.915,0-5.933.565-7.588,2.139a7.184,7.184,0,0,0,1.493,11.462c1.493.767,2.381.928,5.731.928,4.52,0,5.691-.323,7.628-2.22l1.413-1.372,9.888-.121c9.686-.121,9.929-.161,12.108-1.17a13.458,13.458,0,0,0,7.668-10.292c.525-3.229.525-21.472-.04-26.275-1.9-17.072-13.359-30.674-29.342-34.871A44.616,44.616,0,0,0,78.356-240.186Z" transform="translate(0)" fill="#fff" opacity="0.8"/>
    <path id="Path_2011" data-name="Path 2011" d="M84.176-168.31a9.554,9.554,0,0,0-5.933,4.924c-.888,1.7-1.009,2.583-1.17,6.861-.2,7.628,1.251,11.059,5.489,13.117,2.664,1.292,7.224,1.332,8.879.121,2.1-1.574,2.179-1.978,2.058-12.552-.121-9.162-.161-9.808-.969-10.9C91.038-168.714,87.97-169.319,84.176-168.31Z" transform="translate(-18.413 -42.856)" fill="#fff"/>
    <path id="Path_2012" data-name="Path 2012" d="M170.114-168.273a7.494,7.494,0,0,0-2.018,1.493c-.767.848-.807,1.534-.928,10.857-.081,10.736-.04,11.139,2.058,12.713,1.655,1.211,6.215,1.17,8.879-.121,4.036-1.937,5.529-5.247,5.529-12.148,0-6.821-1.493-10.211-5.408-12.068C175.967-168.677,171.769-169,170.114-168.273Z" transform="translate(-72.144 -42.934)" fill="#fff"/>
  </g>
</svg>
