<svg xmlns="http://www.w3.org/2000/svg" width="88.339" height="88.339" viewBox="0 0 88.339 88.339">
  <path id="earth-africa-solid" d="M88.339,44.169A44.169,44.169,0,1,1,44.169,0,44.166,44.166,0,0,1,88.339,44.169ZM30.677,10.9,32.4,13.91a5.639,5.639,0,0,1,.725,2.74v7.143a2.562,2.562,0,0,0,.742,1.794,2.664,2.664,0,0,0,3.8-.207l2.347-2.933a2.761,2.761,0,0,1,3.4-.742l2.623,1.311a3.812,3.812,0,0,0,1.9.449,4.259,4.259,0,0,0,3-1.242l.673-.673a1.431,1.431,0,0,1,1.9-.311l5.055,2.519a3.944,3.944,0,0,1-.811,7.35L51.64,32.644a7.564,7.564,0,0,1-4-.155L42.116,30.66a4.1,4.1,0,0,0-1.6-.293,5.256,5.256,0,0,0-3.347,1.121l-6.8,5.09A6.9,6.9,0,0,0,27.606,42.1V46.93a8.284,8.284,0,0,0,8.282,8.282h5.521a2.769,2.769,0,0,1,2.761,2.761v8.282a5.521,5.521,0,0,0,9.938,3.313l4.417-5.884a11.43,11.43,0,0,0,2.208-6.625V54.97a1.442,1.442,0,0,1,1.1-1.415l.914-.224a4.632,4.632,0,0,0,3.5-4.486,4.352,4.352,0,0,0-1.346-3.261l-5.78-5.78a1.418,1.418,0,0,1,0-2.312,3.653,3.653,0,0,1,3.761-.88l2.433.811a4.664,4.664,0,0,0,5.435-2.26,2.882,2.882,0,0,1,3.106-1.587l4.883.949A36.047,36.047,0,0,0,44.169,8.282,35.247,35.247,0,0,0,30.677,10.9Z" fill="#fff"/>
</svg>
