<svg xmlns="http://www.w3.org/2000/svg" width="102.56" height="85.299" viewBox="0 0 102.56 85.299">
  <g id="Group_46" data-name="Group 46" transform="translate(10.068 4.251)">
    <path id="Path_2016" data-name="Path 2016" d="M94.95,40.908c-.023.389.279.249.336.306C95.214,40.564,94.875,40.923,94.95,40.908Z" transform="translate(-2.794 39.835)" fill="#444"/>
    <path id="Path_2017" data-name="Path 2017" d="M94.9,39.757l.132.107-.357-.932Z" transform="translate(-3.535 34.592)" fill="#444"/>
    <path id="Path_2018" data-name="Path 2018" d="M94.72,37.56c-.472.623.321,2.166.215,3.252L94.826,41l.441.453c-.034-.324-.083-.675-.136-1.03-.072-.351-.136-.706-.208-1.06A8.663,8.663,0,0,1,94.72,37.56Z" transform="translate(-3.82 30.788)" fill="#444"/>
    <path id="Path_2019" data-name="Path 2019" d="M94.894,36.707c-.166.238-.283-.668.064.773a1.294,1.294,0,0,1,.026-.151C94.958,37.2,94.928,37.017,94.894,36.707Z" transform="translate(-3.364 28.241)" fill="#444"/>
    <path id="Path_2020" data-name="Path 2020" d="M94.8,36.905c.113.645.1-.445,0,0Z" transform="translate(-3.18 28.666)" fill="#444"/>
    <path id="Path_2021" data-name="Path 2021" d="M94.611,36.391l.37.8c.083-.2-.072-.962.083-.7C94.762,35.644,94.69,35.855,94.611,36.391Z" transform="translate(-3.704 26.244)" fill="#444"/>
    <path id="Path_2022" data-name="Path 2022" d="M94.464,35.859l.181.419C94.675,36.183,94.66,36.067,94.464,35.859Z" transform="translate(-4.111 26.071)" fill="#444"/>
    <path id="Path_2023" data-name="Path 2023" d="M94.938,36.849l-.362-.879c-.06.14-.219.192.147.408C94.56,36.336,94.745,36.483,94.938,36.849Z" transform="translate(-4.042 26.378)" fill="#444"/>
    <path id="Path_2024" data-name="Path 2024" d="M94.841,36.347c0,.494.068,1.106-.3.306.23.785.347,1.117.438,1.034C95.056,37.619,95.079,37.136,94.841,36.347Z" transform="translate(-3.903 27.424)" fill="#444"/>
    <path id="Path_2025" data-name="Path 2025" d="M94.523,37.5l-.087.638.226.513C94.549,38.388,94.685,37.441,94.523,37.5Z" transform="translate(-4.189 30.608)" fill="#444"/>
    <path id="Path_2026" data-name="Path 2026" d="M94.464,34.648c-.125,0-.158.381-.272.487.019,0,.324.57.324.57C94.505,35.361,94.335,34.746,94.464,34.648Z" transform="translate(-4.866 22.712)" fill="#444"/>
    <path id="Path_2027" data-name="Path 2027" d="M94.6,35.373l-.555-.811C94.362,35.358,94.509,35.471,94.6,35.373Z" transform="translate(-5.273 22.474)" fill="#444"/>
    <path id="Path_2028" data-name="Path 2028" d="M94.361,36.07l.737,1.411-.811-1.7Z" transform="translate(-4.602 25.858)" fill="#444"/>
    <path id="Path_2029" data-name="Path 2029" d="M94.1,33.981l.483.364-.8-.681Z" transform="translate(-5.997 19.984)" fill="#444"/>
    <path id="Path_2030" data-name="Path 2030" d="M94.19,34.386c.381.245.045-.657.366-.355a6.311,6.311,0,0,0-1.226-1.275A4.242,4.242,0,0,1,94.19,34.386Z" transform="translate(-7.256 17.465)" fill="#444"/>
    <path id="Path_2031" data-name="Path 2031" d="M93.16,32.6a8.447,8.447,0,0,0,.641.6A3.244,3.244,0,0,0,93.16,32.6Z" transform="translate(-7.728 17.024)" fill="#444"/>
    <path id="Path_2032" data-name="Path 2032" d="M93.994,34.767a1.144,1.144,0,0,0-.015-.83l-.128.483C93.889,34.526,93.945,34.646,93.994,34.767Z" transform="translate(-5.811 20.741)" fill="#444"/>
    <path id="Path_2033" data-name="Path 2033" d="M94.094,34.624l0-.015c-.151-.392-.287-.63-.336-.74C93.8,33.971,93.928,34.171,94.094,34.624Z" transform="translate(-6.058 20.552)" fill="#444"/>
    <path id="Path_2034" data-name="Path 2034" d="M93.933,34.248c-.015-.034-.023-.064-.038-.091C93.88,34.2,93.88,34.225,93.933,34.248Z" transform="translate(-5.712 21.351)" fill="#444"/>
    <path id="Path_2035" data-name="Path 2035" d="M94.769,35.857c-.332-.475-.857-1.5-.777-.362C94.316,35.8,94.267,35.147,94.769,35.857Z" transform="translate(-5.443 23.628)" fill="#444"/>
    <path id="Path_2036" data-name="Path 2036" d="M93.853,34.337l.328.951c.068-.053.109-.26.3-.042Z" transform="translate(-5.806 21.85)" fill="#444"/>
    <path id="Path_2037" data-name="Path 2037" d="M93.777,34.227l.284.416-.122-.357Z" transform="translate(-6.016 21.544)" fill="#444"/>
    <path id="Path_2038" data-name="Path 2038" d="M93.988,33.865a5.646,5.646,0,0,1-.894-1.14,16.291,16.291,0,0,0,.819,1.521C94.037,34.264,94.316,34.385,93.988,33.865Z" transform="translate(-7.911 17.379)" fill="#444"/>
    <path id="Path_2039" data-name="Path 2039" d="M93.63,33.58a.353.353,0,0,1-.06-.068C93.57,33.569,93.589,33.618,93.63,33.58Z" transform="translate(-6.591 19.562)" fill="#444"/>
    <path id="Path_2040" data-name="Path 2040" d="M92.3,31.583l0,.1.059-.018Z" transform="translate(-10.113 14.212)" fill="#444"/>
    <path id="Path_2041" data-name="Path 2041" d="M93.349,33.24a1.886,1.886,0,0,0,.555.755c-.177-.272-.358-.555-.551-.864C93.292,33.119,93.266,33.131,93.349,33.24Z" transform="translate(-7.35 18.494)" fill="#444"/>
    <path id="Path_2042" data-name="Path 2042" d="M92.913,32.291c.079.223.174.46.283.709C93.154,32.763,93.026,32.314,92.913,32.291Z" transform="translate(-8.413 16.176)" fill="#444"/>
    <path id="Path_2043" data-name="Path 2043" d="M93.572,33.514l.045.049C93.6,33.408,93.583,33.434,93.572,33.514Z" transform="translate(-6.585 19.391)" fill="#444"/>
    <path id="Path_2044" data-name="Path 2044" d="M93.891,33.772a2.93,2.93,0,0,0-.434-.415,6.209,6.209,0,0,0,.426.585A.5.5,0,0,1,93.891,33.772Z" transform="translate(-6.904 19.132)" fill="#444"/>
    <path id="Path_2045" data-name="Path 2045" d="M92.054,32.307c.268-.125,1.166.57,1.5,1.5.751.6,1.143-.438,1.045-1.422-.117.053-.211.125-.943-.54.087.37,1.038,1.928.328,1.441-.917-.913-.574-.89-.838-1.479.023.324-.34.087-.724-.162s-.841-.464-.947-.192c0,0,.223.174.438.355s.415.374.415.374C92.28,32.251,91.93,32.024,92.054,32.307Z" transform="translate(-12.406 13.511)" fill="#444"/>
    <path id="Path_2046" data-name="Path 2046" d="M93.357,33.153l.257.309a6.442,6.442,0,0,1-.487-1.385c-.528-.449-.706-.491-.811-.468l.607.8c.272.419.547.83.547.83Z" transform="translate(-10.068 14.273)" fill="#444"/>
    <path id="Path_2047" data-name="Path 2047" d="M93.716,33.595c-.449-.094-1.106-.807-1.057-.132.694.951.683.54,1.17,1.064-1.056-1.589.441.374-.136-.9a7.026,7.026,0,0,1,.611.841c-.147-.317-.272-.626-.4-.928l.008.049.008,0-.008,0c.015.091.008.128-.023.034l-.026-.026a.283.283,0,0,1-.147-.011c-.264-.494.011-.113.147.011l.049-.008v-.008L92.667,32.1A15.443,15.443,0,0,0,93.716,33.595Z" transform="translate(-9.122 15.638)" fill="#444"/>
    <path id="Path_2048" data-name="Path 2048" d="M93.762,35.039c0-.064.03-.072.049-.083C93.728,34.862,93.683,34.828,93.762,35.039Z" transform="translate(-6.172 23.362)" fill="#444"/>
    <path id="Path_2049" data-name="Path 2049" d="M93.7,35.572a1.185,1.185,0,0,1,.4.589c.06.389-.143.053-.23.106.2.215.521.811.389-.038l-.091-.113a3.808,3.808,0,0,1-.132-1.7A2.743,2.743,0,0,0,93.7,35.572Z" transform="translate(-6.233 22.053)" fill="#444"/>
    <path id="Path_2050" data-name="Path 2050" d="M94.013,34.552l-.438-.664c-.109-.17-.223-.324-.313-.441s-.155-.2-.155-.2.053.2.091.411a3.438,3.438,0,0,1,.079.415l.125-.117C93.764,34.778,93.847,34.51,94.013,34.552Z" transform="translate(-7.875 18.824)" fill="#444"/>
    <path id="Path_2051" data-name="Path 2051" d="M92.709,31.871l.394-.033-.947-.446Z" transform="translate(-10.511 13.684)" fill="#444"/>
    <path id="Path_2052" data-name="Path 2052" d="M92.117,31.41l.273-.129-.5-.3Z" transform="translate(-11.253 12.536)" fill="#444"/>
    <path id="Path_2053" data-name="Path 2053" d="M81.424,34.01l.324-.294A2.579,2.579,0,0,0,81.424,34.01Z" transform="translate(-40.274 20.128)" fill="#444"/>
    <path id="Path_2054" data-name="Path 2054" d="M80.7,34.18l-.011.158C80.784,34.206,80.814,34.131,80.7,34.18Z" transform="translate(-42.32 21.373)" fill="#444"/>
    <path id="Path_2055" data-name="Path 2055" d="M80.781,26.917c-.736-.072-1.615-.253-1.441.034l.294.238A3.641,3.641,0,0,1,80.781,26.917Z" transform="translate(-46.117 0.933)" fill="#444"/>
    <path id="Path_2056" data-name="Path 2056" d="M74.851,33.842c.008-.064.015-.14.026-.208-.155-.121-.3-.234-.434-.336C74.564,33.469,74.7,33.654,74.851,33.842Z" transform="translate(-59.633 18.971)" fill="#444"/>
    <path id="Path_2057" data-name="Path 2057" d="M74.916,33.417l.068.385a2.546,2.546,0,0,0,.079.385C75.022,34.006,75.007,33.745,74.916,33.417Z" transform="translate(-58.322 19.298)" fill="#444"/>
    <path id="Path_2058" data-name="Path 2058" d="M84.571,30.926s-.008-.143-.023-.291a2.009,2.009,0,0,0-.034-.294C84.16,31.028,84.458,30.8,84.571,30.926Z" transform="translate(-32.169 10.768)" fill="#444"/>
    <path id="Path_2059" data-name="Path 2059" d="M88.417,28.235a5.717,5.717,0,0,0-1.268-.8C87.749,27.869,88.126,28.4,88.417,28.235Z" transform="translate(-24.397 2.72)" fill="#444"/>
    <path id="Path_2060" data-name="Path 2060" d="M81.582,35.008c.23-.189.313-.306.268-.366C81.612,34.831,81.492,34.97,81.582,35.008Z" transform="translate(-39.919 22.696)" fill="#444"/>
    <path id="Path_2061" data-name="Path 2061" d="M86.725,27.265a2.771,2.771,0,0,0,.264.189,9.05,9.05,0,0,1,1.336.468A2.9,2.9,0,0,0,86.725,27.265Z" transform="translate(-25.573 2.238)" fill="#444"/>
    <path id="Path_2062" data-name="Path 2062" d="M76.518,20.465c-.049-.011-.1-.011-.147-.019C76.371,20.491,76.431,20.484,76.518,20.465Z" transform="translate(-54.287 -16.672)" fill="#444"/>
    <path id="Path_2063" data-name="Path 2063" d="M71.584,22.259c.136-.14.377-.343.6-.543A3.461,3.461,0,0,0,71.584,22.259Z" transform="translate(-67.562 -13.15)" fill="#444"/>
    <path id="Path_2064" data-name="Path 2064" d="M90.4,29.485c.343.272.072.019,0,0Z" transform="translate(-15.371 8.394)" fill="#444"/>
    <path id="Path_2065" data-name="Path 2065" d="M90.782,30.129c-.094-.034-.177-.049-.238,0A.29.29,0,0,1,90.782,30.129Z" transform="translate(-14.982 10.093)" fill="#444"/>
    <path id="Path_2066" data-name="Path 2066" d="M85.5,27.4l-.042-.011C85.561,27.471,85.546,27.456,85.5,27.4Z" transform="translate(-29.095 2.568)" fill="#444"/>
    <path id="Path_2067" data-name="Path 2067" d="M90.78,29.954a4.9,4.9,0,0,0-.366-.441C90.467,29.585,90.576,29.724,90.78,29.954Z" transform="translate(-15.343 8.472)" fill="#444"/>
    <path id="Path_2068" data-name="Path 2068" d="M90.52,29.584c.106.109.185.2.268.279C90.863,29.863,90.848,29.807,90.52,29.584Z" transform="translate(-15.049 8.669)" fill="#444"/>
    <path id="Path_2069" data-name="Path 2069" d="M90.277,29.379c.189.166.358.336.517.506-.053-.079-.064-.117-.038-.106C90.654,29.7,90.507,29.575,90.277,29.379Z" transform="translate(-15.723 8.1)" fill="#444"/>
    <path id="Path_2070" data-name="Path 2070" d="M84.515,23.482l-.03-.094C84.13,23.135,84.259,23.267,84.515,23.482Z" transform="translate(-32.389 -8.898)" fill="#444"/>
    <path id="Path_2071" data-name="Path 2071" d="M77.363,28.824l.034-.038-.057.023Z" transform="translate(-51.599 6.456)" fill="#444"/>
    <path id="Path_2072" data-name="Path 2072" d="M77.064,30.183a1.558,1.558,0,0,1,1.041-1.03l-.917-.491s-.042.381-.079.755S77.064,30.183,77.064,30.183Z" transform="translate(-52.365 6.112)" fill="#444"/>
    <path id="Path_2073" data-name="Path 2073" d="M116.7,68.95l-.936.491c.581-1.158,1.241-1.694.332-1.29.309.4-.389,1.083-1.079,1.77-.736.634-1.464,1.287-1.23,1.713l-.668.226c.162-.1.155-.17.313-.272-1.343.347-.332,1.192-1.875,1.973-.54.249-.958.34-.679.023.015.026-1.034.853-1.034.853-.343.162-.336-.038,0-.2l-.86.506-.89.449v-.038a8.237,8.237,0,0,1-.958.962c-.54.042.2-.189.03-.257l-.966.6c-.517-.087.272-.626,1-.864-.664-.275-.849-.151-1.162.091a2.823,2.823,0,0,1-1.9.615l.947-.415c-.8-.343-1.5.083-2.686-.019.291.151,2.456.3,1.37.838a2.954,2.954,0,0,0-1.373.411c-.083-.34-.672-.121-1.449.015l-.023-.468c-.8.272-.7.468-1.173.747a1.339,1.339,0,0,1-1.4-.6c-1.472-.019,1.053.555-.706.69a22.152,22.152,0,0,0-3.6.026c-.815-.313.2-.257-.083-.438l-.4.113a2.479,2.479,0,0,1-.4.094c-.185-.057-.1-.151-.057-.2-.641-.038-.17.464-1.181.275-.2.181-.672-.128-1.162-.581a3.817,3.817,0,0,0-1.69-1.041c-.155-.287.279-.14.313-.347-.374-.174-.638-.3-.853-.392s-.34-.211-.479-.291a12.4,12.4,0,0,1-1.192-.664,4.258,4.258,0,0,1-.219-.562c-.083-.291-.174-.574-.174-.574.155.894-.819.238-1.524-.672a4.982,4.982,0,0,0-.023.924l-.155-.238a4.03,4.03,0,0,1-.321-.532c-.2-.411-.4-.819-.4-.819.019-.238.207-.094.49.121-.072-.1-.151-.2-.2-.272.042-.664.366-.381.721-.049-.03.219-.057.438-.083.657.377.309.864.487,1.064.3a1.05,1.05,0,0,1-.317-.415c.1.072.189.109.219.049s-.121-.181-.309-.381c0,0,.1-.121.192-.245s.2-.226.2-.226l-.226-.023s-.026-.5-.026-.977c.019-.245.026-.491.038-.672a1.571,1.571,0,0,1,.042-.3,11.086,11.086,0,0,1-.4-1.045c-.06-.189-.121-.381-.177-.574-.042-.2-.083-.4-.121-.619a6.4,6.4,0,0,1,.279-3.094c.117.721.528.355.936.566-.717.43-.468,1.8-.732,2.928.158-.6.347-.423.4-.264,0,0-.008-.132-.011-.328s.023-.468.038-.74a6.518,6.518,0,0,1,.072-.751c.023-.2.045-.343.045-.343.321.17.43-.336.785-.789-.868.094.253-1.687.6-2.551.245.1.3.4-.279,1.306a1.426,1.426,0,0,0,.581-1.26,1.339,1.339,0,0,1,.615-1.253c-.151.226-.272.317-.234.475.174-.657,1.389-1.732,1.29-1.313l-.174.215c.313-.336.679-.773,1.121-1.2s.838-.936,1.275-1.339A14.239,14.239,0,0,0,92.8,56.008c.275-.328.434-.6.389-.762a3.144,3.144,0,0,1,.264.906s.3-.913.69-1.826c.4-.89.849-1.811.849-1.811.045.611,1.626,1.087.528,2.173a5.865,5.865,0,0,0,1.589-.992c-.291.075-1.034-.306-.7-.547a19.141,19.141,0,0,0,2.294-.291c-.449.091-.381-.875.287-1.166-.045.162.4.721.2.909l.192-.23a6.334,6.334,0,0,1,.43-.506c.336-.362.66-.717.66-.717-.351.309.2.668.645.74-.238-.106,1.411-.521,1.826-.736l-.755.064a3.352,3.352,0,0,0,1.717-1.113,2.96,2.96,0,0,1,1.792-1.079.637.637,0,0,0,.664,1.03,7.133,7.133,0,0,1,3.434-2.977l.381.2s.343-.109.687-.223c.347-.1.7-.189.7-.189-.423.328-1.2.924-2,1.5s-1.619,1.223-2.2,1.573c.762.06.253.241,1.339.034.415.158-.536.438-.853.506,0,0,.634-.075,1.268-.143s1.268-.094,1.268-.094c-.079-.234.392-.419.864-.581.479-.147.97-.283.913-.483,0,0-.177.042-.438.109s-.6.147-.943.257c-.679.215-1.355.423-1.355.423-.2-.453,1.438-1.626,3.339-1.63.483.162-.309.9-.253,1.056a3.855,3.855,0,0,1,1.894-.272l-.766.275c1.015.158,1.668-.69,2.89-.166.43.023,1.223.706,1.313.426-.638-.623-.709-2.373-.189-2.743a19.489,19.489,0,0,1,2.751,1.075c.325.287.023.479-.291.706s-.626.445-.358.664c.045-.128.453-.275.623-.283.426.189-.238.377.724.479.238-.46,1.947.385.524-.336a9.17,9.17,0,0,1,2.087.483c-.283-.4,1.23-.819,2.241-.713-.087.109.079.324.166.423.955.294,1.653.634,2.354.917s1.347.619,2.2.977c.117.177.875.657.445.7a2.451,2.451,0,0,1,1.1.181c.4.441.106.313-.219.189s-.69-.223-.419.17c.2-.264,1.487.275,2.3.475-.03-.494-1.638-.958-2.464-1.075.109-.275.581-.457,1.238-.434a9.269,9.269,0,0,1,2.49.513c1.464.63.408.687.694.74a6.048,6.048,0,0,0,2.536.989,3.51,3.51,0,0,1,2.038,1.143c.585.868-.415.664-.4,1.015-1.136-.585-1.479-1.3-2.211-1.766,0,0,.192.181.4.37l.392.377a5.232,5.232,0,0,1-1.513-.819,18.747,18.747,0,0,0,2.441,1.838,18.941,18.941,0,0,1,1.724,1.317,12.6,12.6,0,0,1,1.438,1.328c.381.158.992.506.849.174l-.57-.434c-.294-.675,1.3.562.706-.151.438.23.921.464,1.407.77a4.856,4.856,0,0,1,1.392,1.245l-.132.506c.075-.109-.441-.823-.811-.992.547.264,1.056,1.9,1.917,1.928l-.46-.89c.423.268.951.521,1.438.857a5.53,5.53,0,0,1,1.309,1.26c-.042-.713-.223-.177-.43-1.181.015.506-.491-.1-1-.63-.521-.517-.992-.992-.8-.324-.219-1.045-.894-1.3-1.434-2.453-.072.132.125.483-.607-.26a1.3,1.3,0,0,1-.253-.049l-.049-.057.034.053c-.053-.015-.053-.015.015.015a1.346,1.346,0,0,1,.238.513c-.615-.075-1.815-1.181-2.37-1.377-.434-.426.313.026.147-.3l-.819-.3c.143-.309-.958-1.43.306-.7l-1.023-.811a5.842,5.842,0,0,0-1.985-1.509c-.472-.411-1.49-.566-.909-.491a2.511,2.511,0,0,0-.283-.136c-.181-.079-.415-.192-.645-.3-.472-.215-.94-.426-.94-.426l.026-.083a10.426,10.426,0,0,0-1.37-.709l-1.483-.6c-.5-.2-.981-.457-1.479-.69a8.726,8.726,0,0,1-1.483-.883c-.332-.091-.675-.177-1.053-.313a13.543,13.543,0,0,1-1.358-.479l-.117-.34a12.159,12.159,0,0,1-1.6-.6,2.585,2.585,0,0,0-1.306-.249,2.225,2.225,0,0,0-.989-.611c-.226-.083-.472-.158-.736-.23s-.547-.094-.834-.14c-1.147-.151-2.373-.309-3.154-.408l-.1.366a16.128,16.128,0,0,0-1.611-.1,12.573,12.573,0,0,0-1.807.068l.068.328a8.151,8.151,0,0,1-2.1-.042,12.8,12.8,0,0,0-2.6-.075c.109-.132.57-.132.894-.079a4.722,4.722,0,0,0-1.656-.121,9.787,9.787,0,0,0-1.649.351c-.54.132-1.068.313-1.585.434a5.445,5.445,0,0,1-1.528.158,2.323,2.323,0,0,1-1.151.257.7.7,0,0,0,.113-.045l-.192.042c-.226,0-.457-.03-.7-.011a4.3,4.3,0,0,0,.6.034,8.031,8.031,0,0,0-1.415.517l-.328-.279c-.038.019-.075.03-.121.049-.57.03-.374.283-.023.453a3.366,3.366,0,0,0-.641.415c-.592-.4-1.3.649-2.075.291a6.321,6.321,0,0,1-1.351.879c-.6.336-1.136.792-1.136,1.124-.049-.068-.211-.034.045-.162a3.649,3.649,0,0,0-1.562.841l-.441-.268-.868,1.189c-.811.211-1.2.268-.69-.472a12.922,12.922,0,0,1-1.264,1.268,7.513,7.513,0,0,0-1,1.2l-.109-.275c-.487.355-.936,1.287-1.362,1.339a4.388,4.388,0,0,0-1.381.943c-.272.249-.566.532-.883.841s-.6.672-.917,1.03a31.441,31.441,0,0,0-3.437,4.9c.521-.151.279.192-.03.63s-.626,1.015-.34,1.173c-.253.136-.487.611-.506-.019-.068.475-.185.872-.268,1.241s-.158.709-.238,1.023a3.162,3.162,0,0,0,.155,1.9c-.2.226-.294-.415-.415-.219a1.659,1.659,0,0,1,.079.838c-.1.208-.2-.283-.279-.6a3.816,3.816,0,0,0,.211,1.219,1.531,1.531,0,0,0,.385.645,1.213,1.213,0,0,0,.909.291,2.366,2.366,0,0,0,.158,1.17,1.657,1.657,0,0,0,.664.766c-.038.374.026,1-.543-.068.072.151.181.483.366.864a9.25,9.25,0,0,0,.728,1.207c.558.792,1.253,1.347,1.43,1.2a1.158,1.158,0,0,0,.362.43,2.674,2.674,0,0,0,.472.279,8.688,8.688,0,0,0,1.23.909c.17.106.332.215.536.336.219.094.472.208.8.362L89.57,78.5a1.091,1.091,0,0,1,.966.136,6.232,6.232,0,0,0,1.249.532l-.045.045a3.72,3.72,0,0,0,1.766.54,7.082,7.082,0,0,1,1.785.4l-.109-.355c.155-.355.683-.208,1.377-.011a8.3,8.3,0,0,0,1.14.245,2.652,2.652,0,0,0,1.147-.045l-.524-.162c.381-.158.943.079,1.532.317a4.646,4.646,0,0,0,1.607.483c.185.034-.26.162-.5.238,2.2.091.211-.483,1.747-.879.332.185-.257.7.819.524a5.626,5.626,0,0,0,1.819-.74,6.86,6.86,0,0,1,2.468-.909c-.366-.064-.728-.14-.094-.524,1-.441,3.086-.54,3.7-1.581.151-.023.223,0,.245.034.351-.253.906-.675,1.411-1.094a3.69,3.69,0,0,0,1.06-1.121c.66.264,1.683-.611,2.494-1.536.211-.223.419-.445.6-.641a5.738,5.738,0,0,1,.517-.547c.317-.287.585-.408.773-.2a12.343,12.343,0,0,0,.909-.947c.438-.491.868-.977.868-.977l.042.128a4.587,4.587,0,0,0,1.449-2.49c.287-.268.2.019.23.083a9.89,9.89,0,0,0,1.521-2,8.412,8.412,0,0,0,.721-2.143l.423,0c.1-.543,2.151-2.89,2.554-5.335a.4.4,0,0,1,.068.309,11.541,11.541,0,0,1,.634-2.079c.241-.709.547-1.407.773-2.09.449-1.373.623-2.619.023-3.177l-.094-.909c-.038-.449-.117-.89-.117-.89-.226,2.271-.536-.366-.811.555-.045-.86.441-2.271.494-1.177l-.072.166c.336.2.438-.5.419-1.26.019-.766-.068-1.562.166-1.558a27.649,27.649,0,0,0-4.286-12.527l-.17.706s-.2-.309-.4-.623-.415-.607-.415-.607c-.136-.381.026-.672.638.2-.087-.641-1.272-1.29-1.385-1.226-1.158-1.736,1,.234.611-.26l-.592-.653.075.2a4.85,4.85,0,0,1-1.664-1.253c-.479-.66-.053-.528-.264-.773.026-.023-.034-.113-.336-.355,0,0-.321-.351-.668-.668s-.687-.649-.687-.649l.275.819c-.74-.415-1.306-1.155-.962-.257a8.37,8.37,0,0,0-2.936-2.766c-1.4-.928-2.849-1.641-3.143-1.909a21.164,21.164,0,0,1-3.49-1.256c.291.211.313.713-.785.253.377-.4-.109-.675-.8-.977a5.8,5.8,0,0,1-1.951-1.019c.374.336-.483.151-1.283.038-.807-.094-1.543-.143-.921.3-.985-.245,0-.377-.736-.713-2.426,0-5.339-.713-8.361-.279-.026.132.483.283-.128.528,0,0-.415-.132-.819-.223-.423-.1-.834-.2-.834-.2-.581.17-.423.781-1.555.57.162.075.415.185.042.313a24.141,24.141,0,0,0-8.444,2.679c-2.683,1.339-5.2,2.905-7.9,4.313.8-.287.366.03-.091.441.34-.211.192.253.362.336l-1.1.619c-.562.294-1.09.641-1.09.641,0,.336-.479.8-.928,1.245s-.864.917-.785,1.162l.468-.626c-.155.574.317.509.857.4.566-.094,1.211-.234,1.4.068.189-.6.868-.958,1.626-1.321a6.519,6.519,0,0,0,1.1-.672,2.908,2.908,0,0,0,.9-1.03c.4-.132-.14.381.128.385.181-.517.589-.913,1.528-1.355l-.06.128a23.048,23.048,0,0,1,6.614-3.045l-.351-.223a2.99,2.99,0,0,1,1.166-.2c.279-.377-.174-.219-.645-.068-.464.181-.936.358-.713-.049a7.644,7.644,0,0,0,2.819-.653c1.132-.313,2.241-.615,2.641-.264,1.023-.226-.4-.325.634-.551l.321.155.208-.336c.687-.087,1.083.147,1.132.321a3.6,3.6,0,0,0-.63.162,5.019,5.019,0,0,0,1.607-.185,4.637,4.637,0,0,1,1.17-.189l-.506-.023a4.94,4.94,0,0,0-.509-.015c.7-.128,1.453-.2,2.222-.279.777-.023,1.562-.053,2.347-.049.792.053,1.577.038,2.336.087.755.072,1.506.053,2.2.079l-.185-.2a4.759,4.759,0,0,1,1.917.343,12.115,12.115,0,0,0,2.007.623l-.091.015a4.48,4.48,0,0,1,1.717.355c-.619-.034.9.743.106.664a7.726,7.726,0,0,0,1.619.324,3.724,3.724,0,0,1,1.177-.038l.192.4a2.892,2.892,0,0,1,1.762.441c-.97-.268.445.724-.653.464a8.74,8.74,0,0,0,2.411,1.558c.675.336,1.189.626,1.351,1.317.672.068.343-.37-.121-.747s-1.007-.743-.706-.619c-.3-.517,1.1.1,1.66.664.607.54.449,1.573,1.826,2.939-.132-.136-.181-.109-.317-.253.385.638,1.189.857,1.551,1.732.657.1.721.906,1.26.668,0,0-.313-.336-.626-.664-.162-.162-.317-.325-.438-.445l-.2-.2c.777.66,1.958,1,2.664,2.619a4.638,4.638,0,0,1-.86-.6c.162.487.638.721.785,1.238-.287.1-.611-.34-1-.872a5.053,5.053,0,0,0-1.4-1.415c.155.532,1.585,1.355.762,1.3,1.128.158,1.007,1.6,2.2,2.411l-.347.094a3.321,3.321,0,0,1,.672.792l-.724-.389c.849.743.641,1.928,1.192,2.762-.838-1.913.2-.6.06-1.521a3.2,3.2,0,0,1,.619,1.256,1.772,1.772,0,0,1-.03.781,3.584,3.584,0,0,0,.234,2.339c-.151-.355-.2-1.464.121-.924a4.487,4.487,0,0,1,.038,1.653c.483,1.834.287-.362.672.389-.294.721.343.9.589,1.739l-.347.042c0,1.106.189,1.238.374,1.347s.366.2.253,1.207c0,0-.117-.219-.253-.423s-.264-.411-.264-.411.045.264.087.513a4.2,4.2,0,0,1,.06.521l-.4-.215a4.57,4.57,0,0,1,.185,1.287c-.026.366-.106.721-.2,1.26.272-.23.619.208.487,1.2-.309.626-.245-.419-.464.951a1.082,1.082,0,0,1,.045-1.272c-.106-.075-.174-.336-.283-.408a9.682,9.682,0,0,0-.445,2.219,2.069,2.069,0,0,1,.189-.506,9,9,0,0,1,.008,1.034l-.03,1.053c-.208.275-.241,0-.279-.272a6.812,6.812,0,0,1-.151,1.317c-.234-.238-.5-.287-.4-1.14,0,0-.011.125-.03.3s-.068.419-.1.657l-.151.966c-.147.091-.66.8-.672.54a6.409,6.409,0,0,0-.536,1.8,5.468,5.468,0,0,1-.811,1.985,1.083,1.083,0,0,1-.117.524,15,15,0,0,1-1.147,1.585,8.755,8.755,0,0,0-.555.853,7.492,7.492,0,0,0-.509,1l-.928.411c-.691,1.019,1.283-.54.125,1.17-.815,1.245-.687.143-1.113.445a4.464,4.464,0,0,1-2.053,2.615A8.356,8.356,0,0,1,116.7,68.95Zm-12.9,7.761c.268-.14.762-.532,1.03-.4C104.621,76.8,104.315,76.7,103.795,76.712ZM85.076,69.9a.7.7,0,0,1,.094.392,2.917,2.917,0,0,1-.019.532A1.755,1.755,0,0,1,85.076,69.9Zm55.677-15.353-.042,0C140.191,54.024,140.368,54.212,140.753,54.548Zm1.113,1.015c.147.045.17,0,.147-.075-.132.008-.408-.2-.694-.445C141.349,55.182,141.462,55.348,141.866,55.563ZM120.657,29l.14.272C120.257,28.872,120.453,28.94,120.657,29Z" transform="translate(-69.727 -19.446)" fill="#444"/>
    <path id="Path_2074" data-name="Path 2074" d="M74.965,33.419a.311.311,0,0,1-.125.185C74.938,33.679,75,33.657,74.965,33.419Z" transform="translate(-58.532 19.304)" fill="#444"/>
    <path id="Path_2075" data-name="Path 2075" d="M84.414,30.605l.023-.034a.138.138,0,0,0-.03-.075Z" transform="translate(-32.004 11.198)" fill="#444"/>
    <path id="Path_2076" data-name="Path 2076" d="M84.312,27.611a2.023,2.023,0,0,1-.532-.238C83.762,27.464,83.882,27.528,84.312,27.611Z" transform="translate(-33.744 2.537)" fill="#444"/>
    <path id="Path_2077" data-name="Path 2077" d="M91.874,30.741l-.751-.615a2.377,2.377,0,0,1,.54.7C91.7,30.745,91.663,30.534,91.874,30.741Z" transform="translate(-13.377 10.172)" fill="#444"/>
    <path id="Path_2078" data-name="Path 2078" d="M92.35,32.549c.113.087.166.238.279.317l.113-.125C92.4,32.274,92.063,32.017,92.35,32.549Z" transform="translate(-10.275 16.069)" fill="#444"/>
    <path id="Path_2079" data-name="Path 2079" d="M91.289,30.671c-.166.257.3.63.777,1.083a.827.827,0,0,1-.079-.083C92.429,31.535,91.855,31.1,91.289,30.671Z" transform="translate(-13.011 11.683)" fill="#444"/>
    <path id="Path_2080" data-name="Path 2080" d="M91.5,30.988a4.21,4.21,0,0,1,.411.449C92.088,31.388,91.771,31.229,91.5,30.988Z" transform="translate(-12.334 12.562)" fill="#444"/>
    <path id="Path_2081" data-name="Path 2081" d="M90.426,29.588c.208.26.4-.166.468.038C91.411,29.547,88.921,28.671,90.426,29.588Z" transform="translate(-16.668 7.529)" fill="#444"/>
    <path id="Path_2082" data-name="Path 2082" d="M91.423,31.319l.114-.424-.461-.074Z" transform="translate(-13.506 12.1)" fill="#444"/>
    <path id="Path_2083" data-name="Path 2083" d="M90.242,29.958l.721.762c.026-.053.155.011.291.094C90.782,30.385,90.3,29.864,90.242,29.958Z" transform="translate(-15.82 9.676)" fill="#444"/>
    <path id="Path_2084" data-name="Path 2084" d="M90.51,30.177a3.443,3.443,0,0,0,.641.547A5.737,5.737,0,0,0,90.51,30.177Z" transform="translate(-15.077 10.313)" fill="#444"/>
    <path id="Path_2085" data-name="Path 2085" d="M91.378,31.294l-.166-.273-.5-.534Z" transform="translate(-14.519 11.174)" fill="#444"/>
    <path id="Path_2086" data-name="Path 2086" d="M88.642,28.54l-1.064-.419c-.166.064.079.268.479.415C88.34,28.574,88.744,28.721,88.642,28.54Z" transform="translate(-23.354 4.612)" fill="#444"/>
    <path id="Path_2087" data-name="Path 2087" d="M88.862,29.283a1.162,1.162,0,0,1-.268-.5l-.268.37s.132.034.272.06A1.645,1.645,0,0,1,88.862,29.283Z" transform="translate(-21.133 6.453)" fill="#444"/>
    <path id="Path_2088" data-name="Path 2088" d="M88.34,28.584c-.162.064-1.607-.4-.34.2C88.167,28.708,89.178,29.191,88.34,28.584Z" transform="translate(-23.468 5.594)" fill="#444"/>
    <path id="Path_2089" data-name="Path 2089" d="M83.506,27.594l.287.018.03-.741Z" transform="translate(-34.5 1.148)" fill="#444"/>
    <path id="Path_2090" data-name="Path 2090" d="M79.861,28.436c1.272-.166.162-.54,1.343-.6.249-.249-.962.053-.706-.166C79.8,28.062,79.381,28.07,79.861,28.436Z" transform="translate(-45.181 3.35)" fill="#444"/>
    <path id="Path_2091" data-name="Path 2091" d="M79.878,27.824c.113-.068.234-.136.358-.215A1.292,1.292,0,0,0,79.878,27.824Z" transform="translate(-44.561 3.192)" fill="#444"/>
    <path id="Path_2092" data-name="Path 2092" d="M71.406,22.372s-.2.128-.37.272-.362.279-.362.279l.574-.253.075-.155C71.364,22.447,71.406,22.372,71.406,22.372Z" transform="translate(-70.085 -11.331)" fill="#444"/>
    <path id="Path_2093" data-name="Path 2093" d="M71.054,22.925l-.494-.162-.042.679C70.639,23.28,70.873,22.963,71.054,22.925Z" transform="translate(-70.518 -10.247)" fill="#444"/>
    <path id="Path_2094" data-name="Path 2094" d="M78.946,34.5l-.042.117c.143.1.328.087.7.026,0,0-.17-.038-.332-.068Z" transform="translate(-47.262 22.313)" fill="#444"/>
    <path id="Path_2095" data-name="Path 2095" d="M81.7,33.547l-.158.092.527.177Z" transform="translate(-39.938 19.659)" fill="#444"/>
    <path id="Path_2096" data-name="Path 2096" d="M83.807,31.854c-.245.268-.434.672-.713.921C83.581,32.145,84.271,32.107,83.807,31.854Z" transform="translate(-35.643 14.964)" fill="#444"/>
    <path id="Path_2097" data-name="Path 2097" d="M97.188,36.371,88.543,18.319,67.85,39.993Z" transform="translate(-77.918 -22.57)" fill="#444"/>
  </g>
</svg>
