<svg xmlns="http://www.w3.org/2000/svg" xmlns:xlink="http://www.w3.org/1999/xlink" width="80" height="79.98" viewBox="0 0 80 79.98">
  <defs>
    <linearGradient id="linear-gradient" x1="0.682" y1="0.186" x2="0" y2="1" gradientUnits="objectBoundingBox">
      <stop offset="0" stop-color="#ff0b54"/>
      <stop offset="1" stop-color="#ffcb00"/>
    </linearGradient>
  </defs>
  <path id="instagram-brands" d="M39.933,51.309a20.474,20.474,0,1,0,14.511,6,20.506,20.506,0,0,0-14.511-6Zm0,33.839a13.332,13.332,0,1,1,13.342-13.33,13.332,13.332,0,0,1-13.342,13.33Zm26.13-34.677a4.772,4.772,0,1,1-1.4-3.388A4.784,4.784,0,0,1,66.063,50.471Zm13.582,4.854c-.3-6.4-1.766-12.082-6.46-16.758s-10.352-6.14-16.758-6.46c-6.6-.374-26.4-.374-33,0-6.39.3-12.064,1.766-16.758,6.442S.526,48.9.206,55.307c-.374,6.6-.374,26.4,0,33,.3,6.4,1.766,12.082,6.46,16.758s10.352,6.14,16.758,6.46c6.6.374,26.4.374,33,0,6.4-.3,12.082-1.766,16.758-6.46s6.14-10.352,6.46-16.758c.376-6.6.376-26.379,0-32.983ZM71.114,95.393a13.5,13.5,0,0,1-7.6,7.6c-5.264,2.088-17.758,1.6-23.576,1.6s-18.33.464-23.576-1.6a13.5,13.5,0,0,1-7.6-7.6c-2.088-5.264-1.6-17.758-1.6-23.576S6.7,53.487,8.76,48.241a13.5,13.5,0,0,1,7.6-7.6c5.264-2.088,17.758-1.6,23.576-1.6s18.33-.464,23.576,1.6a13.5,13.5,0,0,1,7.6,7.6C73.2,53.5,72.714,66,72.714,71.817S73.2,90.145,71.114,95.393Z" transform="translate(0.074 -31.826)" fill="url(#linear-gradient)"/>
</svg>
