<svg id="Group_33" data-name="Group 33" xmlns="http://www.w3.org/2000/svg" width="68.646" height="68.957" viewBox="0 0 68.646 68.957">
  <path id="Path_1973" data-name="Path 1973" d="M41.151,34.975a1.175,1.175,0,1,0-2.351,0v1.175a1.178,1.178,0,0,0,1.175,1.175,1.111,1.111,0,0,0,1.175-1.175Z" transform="translate(-20.698 -17.697)" fill="#212121"/>
  <path id="Path_1974" data-name="Path 1974" d="M41.151,39.875a1.175,1.175,0,1,0-2.351,0v1.175a1.178,1.178,0,0,0,1.175,1.175,1.111,1.111,0,0,0,1.175-1.175Z" transform="translate(-20.698 -16.837)" fill="#212121"/>
  <path id="Path_1975" data-name="Path 1975" d="M40.075,43.6A1.178,1.178,0,0,0,38.9,44.775v1.175a1.178,1.178,0,0,0,1.175,1.175,1.111,1.111,0,0,0,1.175-1.175V44.775A1.259,1.259,0,0,0,40.075,43.6Z" transform="translate(-20.681 -15.977)" fill="#212121"/>
  <path id="Path_1976" data-name="Path 1976" d="M45.051,34.975a1.175,1.175,0,1,0-2.351,0v1.175a1.175,1.175,0,0,0,2.351,0Z" transform="translate(-20.014 -17.697)" fill="#212121"/>
  <path id="Path_1977" data-name="Path 1977" d="M45.051,39.875a1.175,1.175,0,1,0-2.351,0v1.175a1.175,1.175,0,1,0,2.351,0Z" transform="translate(-20.014 -16.837)" fill="#212121"/>
  <path id="Path_1978" data-name="Path 1978" d="M43.975,43.6A1.178,1.178,0,0,0,42.8,44.775v1.175a1.175,1.175,0,0,0,2.351,0V44.775A1.259,1.259,0,0,0,43.975,43.6Z" transform="translate(-19.997 -15.977)" fill="#212121"/>
  <path id="Path_1979" data-name="Path 1979" d="M37.251,34.975A1.178,1.178,0,0,0,36.075,33.8,1.111,1.111,0,0,0,34.9,34.975v1.175a1.178,1.178,0,0,0,1.175,1.175,1.111,1.111,0,0,0,1.175-1.175Z" transform="translate(-21.382 -17.697)" fill="#212121"/>
  <path id="Path_1980" data-name="Path 1980" d="M37.251,39.875A1.178,1.178,0,0,0,36.075,38.7,1.111,1.111,0,0,0,34.9,39.875v1.175a1.178,1.178,0,0,0,1.175,1.175,1.111,1.111,0,0,0,1.175-1.175Z" transform="translate(-21.382 -16.837)" fill="#212121"/>
  <path id="Path_1981" data-name="Path 1981" d="M36.175,43.6A1.178,1.178,0,0,0,35,44.775v1.175a1.178,1.178,0,0,0,1.175,1.175,1.111,1.111,0,0,0,1.175-1.175V44.775A1.259,1.259,0,0,0,36.175,43.6Z" transform="translate(-21.365 -15.977)" fill="#212121"/>
  <path id="Path_1982" data-name="Path 1982" d="M58.781,58.654V55.246a.555.555,0,0,0-.588-.588H32.333V29.386a6.948,6.948,0,0,1,6.935-6.935h2.351v4.7a5.776,5.776,0,0,0-4.584,5.642,1.178,1.178,0,0,0,1.175,1.175h9.168a1.178,1.178,0,0,0,1.175-1.175,5.776,5.776,0,0,0-4.584-5.642V21.275A1.178,1.178,0,0,0,42.795,20.1H39.386a9.18,9.18,0,0,0-9.168,9.168V54.54H24.928A1.556,1.556,0,0,0,23.4,56.068V57.6a1.556,1.556,0,0,0,1.528,1.528H58.193a.538.538,0,0,0,.588-.47Z" transform="translate(-23.4 -20.1)" fill="#212121"/>
  <path id="Path_1983" data-name="Path 1983" d="M82.149,49.4H71.688a.555.555,0,0,0-.588.588V53.4a.555.555,0,0,0,.588.588H82.149a1.556,1.556,0,0,0,1.528-1.528V50.928A1.556,1.556,0,0,0,82.149,49.4Z" transform="translate(-15.032 -14.96)" fill="#212121"/>
  <path id="Path_1984" data-name="Path 1984" d="M87.558,55.3H79.565a.555.555,0,0,0-.588.588V66.819a1.175,1.175,0,0,1-2.351,0V65.056a.555.555,0,0,0-.588-.588H74.863a.555.555,0,0,0-.588.588v1.763a1.175,1.175,0,0,1-2.351,0V65.056a.555.555,0,0,0-.588-.588H70.161a.555.555,0,0,0-.588.588v1.763A1.178,1.178,0,0,1,68.4,67.995a1.111,1.111,0,0,1-1.175-1.175V65.056a.555.555,0,0,0-.588-.588H65.46a.555.555,0,0,0-.588.588v1.763A1.178,1.178,0,0,1,63.7,67.995a1.111,1.111,0,0,1-1.175-1.175V65.056a.555.555,0,0,0-.588-.588H60.758a.555.555,0,0,0-.588.588v1.763a1.175,1.175,0,0,1-2.351,0V55.888a.555.555,0,0,0-.588-.588H26.788a.555.555,0,0,0-.588.588c.47,8.111,4,16.574,9.168,19.277a4.574,4.574,0,0,0,6.7,6.23,4.459,4.459,0,0,0,.588-5.407h28.8a4.249,4.249,0,0,0-.353,3.761,4.572,4.572,0,0,0,8.7-2.821,7.494,7.494,0,0,0-.94-1.646c5.172-2.586,8.816-11.049,9.168-19.277,0-.47-.235-.705-.47-.705Z" transform="translate(-22.909 -13.925)" fill="#212121"/>
  <path id="Path_1985" data-name="Path 1985" d="M56.088,63.27H71.016a.555.555,0,0,0,.588-.588V49.988a.555.555,0,0,0-.588-.588H56.088a.555.555,0,0,0-.588.588V62.565A.745.745,0,0,0,56.088,63.27Z" transform="translate(-17.768 -14.96)" fill="#212121"/>
</svg>
