<svg id="Group_34" data-name="Group 34" xmlns="http://www.w3.org/2000/svg" width="75.228" height="70.526" viewBox="0 0 75.228 70.526">
  <path id="Path_1986" data-name="Path 1986" d="M90.437,83.912V23.142L81.974,17.5,51.53,31.958V42.184L34.6,47.826v7.405L21.909,58.758V83.677H18.5v4.114h7.17l.118-26.33,21.275-5.172-.118,31.5H57.172V83.677H54.939V58.758L49.767,51,38.482,54.056V50.882l22.1-7.523V87.791H76.331V83.677H73.393V42.654l-8.7-5.289-9.051,3.056.118-5.642,22.1-10.461V88.026H93.728V83.912Z" transform="translate(-18.5 -17.5)" fill="#212121"/>
  <path id="Path_1987" data-name="Path 1987" d="M59.416,51.688H43.9V47.1l15.516-2.7Z" transform="translate(-14.044 -12.781)" fill="#212121"/>
  <path id="Path_1988" data-name="Path 1988" d="M59.416,48.984,43.9,51.688V47.1l15.516-2.7Z" transform="translate(-14.044 -12.781)" fill="#212121"/>
  <path id="Path_1989" data-name="Path 1989" d="M59.416,48.984,43.9,51.688V47.1l15.516-2.7Z" transform="translate(-14.044 -12.781)" fill="#212121"/>
  <path id="Path_1990" data-name="Path 1990" d="M59.416,48.984,43.9,51.688V47.1l15.516-2.7Z" transform="translate(-14.044 -12.781)" fill="#212121"/>
</svg>
