<svg id="Group_35" data-name="Group 35" xmlns="http://www.w3.org/2000/svg" width="70.692" height="70.673" viewBox="0 0 70.692 70.673">
  <path id="Path_1991" data-name="Path 1991" d="M34.728,71.014a4.114,4.114,0,0,0-8.228,0Z" transform="translate(-20.575 -8.804)" fill="#212121"/>
  <path id="Path_1992" data-name="Path 1992" d="M26.4,64.014A4.114,4.114,0,1,0,30.514,59.9,4.088,4.088,0,0,0,26.4,64.014Z" transform="translate(-20.592 -10.032)" fill="#212121"/>
  <path id="Path_1993" data-name="Path 1993" d="M34.728,56.914a4.114,4.114,0,1,0-4.114,4.114A4.088,4.088,0,0,0,34.728,56.914Z" transform="translate(-20.575 -11.278)" fill="#212121"/>
  <path id="Path_1994" data-name="Path 1994" d="M41.889,23.116A2.107,2.107,0,0,0,39.774,21H32.016A2.107,2.107,0,0,0,29.9,23.116v12.46L41.772,23.7v-.588Z" transform="translate(-19.978 -16.857)" fill="#212121"/>
  <path id="Path_1995" data-name="Path 1995" d="M23.623,54.883H31.5L56.77,29.611,82.042,54.883h7.875A1.907,1.907,0,0,0,91.8,53.59a1.974,1.974,0,0,0-.47-2.233L58.181,18.092a2.058,2.058,0,0,0-2.939,0L22.095,51.357a2.015,2.015,0,0,0-.47,2.233,2.241,2.241,0,0,0,2,1.293Z" transform="translate(-21.459 -17.475)" fill="#212121"/>
  <path id="Path_1996" data-name="Path 1996" d="M77.828,71.014a4.114,4.114,0,0,0-8.228,0Z" transform="translate(-13.013 -8.804)" fill="#212121"/>
  <path id="Path_1997" data-name="Path 1997" d="M69.5,64.032A4.116,4.116,0,1,0,73.614,59.8,4.165,4.165,0,0,0,69.5,64.032Z" transform="translate(-13.031 -10.05)" fill="#212121"/>
  <path id="Path_1998" data-name="Path 1998" d="M77.828,56.914a4.114,4.114,0,1,0-4.114,4.114A4.088,4.088,0,0,0,77.828,56.914Z" transform="translate(-13.013 -11.278)" fill="#212121"/>
  <path id="Path_1999" data-name="Path 1999" d="M47.6,54.9h9.168v9.168H47.6Z" transform="translate(-16.873 -10.909)" fill="#212121"/>
  <path id="Path_2000" data-name="Path 2000" d="M75.41,53.505,54.605,32.7,33.8,53.505a8.364,8.364,0,0,1,3.761,6.935,7.036,7.036,0,0,1-1.175,4.114,8.014,8.014,0,0,1,1.175,4.114,7.036,7.036,0,0,1-1.175,4.114A8.014,8.014,0,0,1,37.561,76.9H71.649a7.036,7.036,0,0,1,1.175-4.114,8.014,8.014,0,0,1-1.175-4.114,7.036,7.036,0,0,1,1.175-4.114,8.014,8.014,0,0,1-1.175-4.114A8.364,8.364,0,0,1,75.41,53.505ZM63.3,69.961a2.107,2.107,0,0,1-2.116,2.116H48.023a2.107,2.107,0,0,1-2.116-2.116V56.679a2.107,2.107,0,0,1,2.116-2.116H61.305a2.107,2.107,0,0,1,2.116,2.116V69.961Z" transform="translate(-19.294 -14.804)" fill="#212121"/>
  <path id="Path_2001" data-name="Path 2001" d="M89.91,74H23.616a2.116,2.116,0,0,0,0,4.232H90.028a2.107,2.107,0,0,0,2.116-2.116A2.292,2.292,0,0,0,89.91,74Z" transform="translate(-21.452 -7.558)" fill="#212121"/>
</svg>
