<svg xmlns="http://www.w3.org/2000/svg" width="81.45" height="71.266" viewBox="0 0 81.45 71.266">
  <path id="thumbs-up-regular" d="M15.272,57.327H5.091A5.063,5.063,0,0,0,0,62.274V97.766a4.971,4.971,0,0,0,5.091,4.947H15.272a5.063,5.063,0,0,0,5.091-4.947V62.417A5.179,5.179,0,0,0,15.272,57.327ZM81.45,63.038A10.664,10.664,0,0,0,70.8,52.392H54.91c1.516-3.974,2.359-7.41,2.359-9.43A10.933,10.933,0,0,0,46.124,32.02c-7.415,0-9.443,5.161-11.074,9.306-5.037,12.806-9.6,10.561-9.6,14.869a3.818,3.818,0,0,0,6.2,2.98c12.211-9.763,9.222-19.519,14.469-19.519a3.343,3.343,0,0,1,3.509,3.307c0,1.178-1.208,6.292-4.065,11.389a3.808,3.808,0,0,0-.488,1.864A3.7,3.7,0,0,0,48.9,59.891h21.89a3.238,3.238,0,0,1,3.025,3.147A3.009,3.009,0,0,1,71,66.014a3.817,3.817,0,0,0-3.557,3.808c0,2.461,1.812,2.537,1.812,4.6,0,4.036-5.573,1.963-5.573,6.705,0,1.785,1.017,2.073,1.017,3.54,0,3.6-4.736,2.189-4.736,6.465,0,.718.177.948.177,1.5a3.02,3.02,0,0,1-3.018,3.015H48.769a19.093,19.093,0,0,1-11.374-3.788l-5.832-4.376a3.816,3.816,0,1,0-4.584,6.1l5.834,4.378a26.781,26.781,0,0,0,15.963,5.319h8.357a10.665,10.665,0,0,0,10.627-9.895,10.563,10.563,0,0,0,4.484-10.174A10.611,10.611,0,0,0,76.6,71.935,10.825,10.825,0,0,0,81.45,63.038Z" transform="translate(0 -32.02)" fill="#fff"/>
</svg>
