<svg xmlns="http://www.w3.org/2000/svg" width="80.171" height="87.513" viewBox="0 0 80.171 87.513">
  <g id="tree" transform="translate(-59.558 257.913)">
    <path id="Path_2099" data-name="Path 2099" d="M97.646-257.62c-1.051.43-25.936,27.751-26.413,28.993-.908,2.436.669,4.49,3.821,4.92a5.3,5.3,0,0,1,1.911.478c0,.1-2.579,3.2-5.684,6.878s-5.779,7.26-5.923,7.977c-.334,1.672.955,4.729,2.245,5.445a10.085,10.085,0,0,0,3.248.86l2.245.239-6.4,7.4c-7.308,8.5-7.977,9.792-6.5,13.087,1.576,3.582,1.72,3.63,18.676,3.63H93.682v3.535c0,1.958.143,3.678.382,3.773.191.143.239-7.4.1-16.765L93.92-204.22,91.1-208.949c-2.627-4.442-2.77-4.776-1.911-5.4a6.3,6.3,0,0,1,2.914-.621c2.054,0,2.054,0,2.054-1.672,0-2.34,1.1-4.776,2.579-5.732a5.78,5.78,0,0,1,5.827,0c2.149,1.385,2.579,3.343,2.579,11.463v7.4H107.2a6.3,6.3,0,0,1,2.914.621c.86.621.716.955-1.911,5.4l-2.818,4.729-.239,11.32c-.143,6.209-.1,11.177.143,11.033a11.784,11.784,0,0,0,.334-3.773v-3.535h14.807c17.673,0,17.72,0,19.106-4.824.716-2.484-.334-4.3-6.926-11.893l-6.4-7.4,2.245-.239a10.085,10.085,0,0,0,3.248-.86c1.29-.716,2.579-3.773,2.245-5.445-.143-.716-2.818-4.3-5.923-7.977s-5.684-6.783-5.684-6.926.525-.287,1.194-.287c3.057,0,5.4-2.723,4.49-5.159-.525-1.337-25.41-28.515-26.509-28.945A7.1,7.1,0,0,0,97.646-257.62Z" transform="translate(0)" fill="#fff"/>
  </g>
</svg>
