<?xml version="1.0" standalone="no"?>
<!DOCTYPE svg PUBLIC "-//W3C//DTD SVG 20010904//EN"
 "http://www.w3.org/TR/2001/REC-SVG-20010904/DTD/svg10.dtd">
<svg version="1.0" xmlns="http://www.w3.org/2000/svg"
 width="282.000000pt" height="298.000000pt" viewBox="0 0 282.000000 298.000000"
 preserveAspectRatio="xMidYMid meet">

<g transform="translate(0.000000,298.000000) scale(0.100000,-0.100000)"
fill="#fff" stroke="none">
<path d="M1393 2573 c-22 -9 -543 -581 -553 -607 -19 -51 14 -94 80 -103 22
-3 40 -8 40 -10 0 -2 -54 -67 -119 -144 -65 -77 -121 -152 -124 -167 -7 -35
20 -99 47 -114 11 -7 42 -15 68 -18 l47 -5 -134 -155 c-153 -178 -167 -205
-136 -274 33 -75 36 -76 391 -76 l310 0 0 -74 c0 -41 3 -77 8 -79 4 -3 5 155
2 351 l-5 357 -59 99 c-55 93 -58 100 -40 113 10 7 37 13 61 13 43 0 43 0 43
35 0 49 23 100 54 120 33 22 89 22 122 0 45 -29 54 -70 54 -240 l0 -155 43 0
c24 0 51 -6 61 -13 18 -13 15 -20 -40 -113 l-59 -99 -5 -237 c-3 -130 -2 -234
3 -231 4 2 7 38 7 79 l0 74 310 0 c370 0 371 0 400 101 15 52 -7 90 -145 249
l-134 155 47 5 c26 3 57 11 68 18 27 15 54 79 47 114 -3 15 -59 90 -124 167
-65 77 -119 142 -119 145 0 3 11 6 25 6 64 0 113 57 94 108 -11 28 -532 597
-555 606 -18 7 -63 7 -81 -1z"/>
</g>
</svg>
