<svg xmlns="http://www.w3.org/2000/svg" width="74.635" height="85.625" viewBox="0 0 74.635 85.625">
  <g id="user" transform="translate(-61.296 238.412)">
    <path id="Path_2100" data-name="Path 2100" d="M101.359-238.183a31.828,31.828,0,0,0-26.237,20.9c-1.929,5.337-2.736,13.455-1.525,15.115a2.794,2.794,0,0,0,3.588.314c.314-.314.673-2.646.807-5.337A26.968,26.968,0,0,1,82.7-221.767a26.807,26.807,0,0,1,22.38-11.527A26.562,26.562,0,0,1,127.6-221.5c3.364,5.023,4.4,8.7,4.4,15.787,0,6.772-.628,8.746-3.812,11.84-2.691,2.6-5.786,3.633-10.988,3.633H113.02l-.314-1.3c-.583-2.691-3.184-4.081-7.669-4.081-5.113,0-7.58,1.749-7.58,5.382,0,2.422.9,3.767,3.229,4.754,1.7.718,15.653.852,20.183.224a19.161,19.161,0,0,0,15.787-15.025c1.346-7.266-.314-15.922-4.306-22.829a34.08,34.08,0,0,0-12.11-11.437A32.791,32.791,0,0,0,101.359-238.183Z" transform="translate(-6.468)" fill="#fff" opacity="0.71"/>
    <path id="Path_2101" data-name="Path 2101" d="M115.278-214.18a20.979,20.979,0,0,0-17.671,17.94,21.314,21.314,0,0,0,4.62,16.55,9.953,9.953,0,0,0,2.153,2.243c.179,0,.449-.762.628-1.749a11.057,11.057,0,0,1,5.606-7.311c2.243-1.166,2.736-1.256,7.849-1.256,4.978,0,5.7.09,7.8,1.166a11.879,11.879,0,0,1,3.543,2.691c1.032,1.39,1.3,1.525,2.781,1.256,4.306-.762,6.728-3.5,7.086-7.939.852-10.271-5.247-19.914-14.442-22.694A22.267,22.267,0,0,0,115.278-214.18Z" transform="translate(-19.894 -13.239)" fill="#fff"/>
    <path id="Path_2102" data-name="Path 2102" d="M79.776-106.425c-8.791,1.256-16.64,9.194-18.164,18.344-.628,3.723-.359,5.337,1.166,6.772l1.166,1.076h69.339l1.166-1.076c1.525-1.435,1.794-3.05,1.166-6.772A22.584,22.584,0,0,0,117-106.47C113.19-107.008,83.544-106.963,79.776-106.425Z" transform="translate(0 -72.555)" fill="#fff"/>
  </g>
</svg>
