<svg xmlns="http://www.w3.org/2000/svg" width="188.247" height="131.8" viewBox="0 0 188.247 131.8">
  <path id="quotes-right" d="M140.682,84.782a39.391,39.391,0,1,1,39.391-39.391l.174,5.627A78.782,78.782,0,0,1,101.465,129.8V107.291a55.9,55.9,0,0,0,39.79-16.482,57.131,57.131,0,0,0,5.6-6.511,39.847,39.847,0,0,1-6.173.484Zm-101.291,0A39.391,39.391,0,1,1,78.782,45.391l.174,5.627A78.782,78.782,0,0,1,.174,129.8V107.291a55.9,55.9,0,0,0,39.79-16.482,57.133,57.133,0,0,0,5.6-6.511A39.847,39.847,0,0,1,39.391,84.782Z" transform="translate(4 -2)" fill="none" stroke="#000" stroke-width="8"/>
</svg>
