<svg xmlns="http://www.w3.org/2000/svg" width="36.258" height="31.868" viewBox="0 0 36.258 31.868">
  <g id="Untitled-1-Recdovered" transform="translate(6.663 84.82) rotate(-17)">
    <path id="Path_2105" data-name="Path 2105" d="M16.632-74.208a1.963,1.963,0,0,0-.626.865l-.193.591,2.409,4.267L20.616-64.2l6.987.764c3.839.432,7.02.807,7.052.836a.081.081,0,0,1,0,.115c-.032.029-3.213.4-7.052.836l-6.987.764-2.409,4.282-2.393,4.3.225.605a1.774,1.774,0,0,0,1.59,1.168c.273,0,6.3-2.22,14.1-5.233C46.783-61.551,46.4-61.363,46.4-62.6a1.238,1.238,0,0,0-.369-1.009c-.514-.533-27.532-10.9-28.367-10.9A1.808,1.808,0,0,0,16.632-74.208Z" transform="translate(0)" fill="#f6f6f6"/>
  </g>
</svg>
